<svg width="259" height="59" viewBox="0 0 259 59" xmlns="http://www.w3.org/2000/svg" xmlns:xlink="http://www.w3.org/1999/xlink">
    <g fill="#103169">
        <path d="M143.659937,57.2727273 L143.659937,0.880909091 L136.590958,0.880909091 L136.590958,25.1454545 L103.375274,25.1454545 L103.375274,31.4018182 L136.590958,31.4018182 L136.590958,57.2727273 L143.659937,57.2727273 Z M160.818779,10.6036364 C163.203495,10.6036364 165.162369,8.74363636 165.162369,6.37636364 C165.162369,4.00909091 163.203495,2.06454545 160.818779,2.06454545 C158.519232,2.06454545 156.560358,4.00909091 156.560358,6.37636364 C156.560358,8.74363636 158.519232,10.6036364 160.818779,10.6036364 Z M164.055179,57.2727273 L164.055179,16.4372727 L157.667547,16.4372727 L157.667547,57.2727273 L164.055179,57.2727273 Z M195.777821,57.2727273 L212.896674,16.4372727 L205.912863,16.4372727 L192.285916,49.9172727 L178.5738,16.4372727 L171.675158,16.4372727 L188.794011,57.2727273 L195.777821,57.2727273 Z M239.083369,58.2872727 C226.904285,58.2872727 218.131937,49.5790909 218.131937,36.8127273 C218.131937,24.9763636 226.648779,15.4227273 238.402021,15.4227273 C250.836611,15.4227273 258.161095,25.0609091 258.161095,37.32 L258.161095,38.9263636 L224.860242,38.9263636 C225.371253,46.62 230.822032,53.0454545 239.679548,53.0454545 C244.363811,53.0454545 249.133242,51.1854545 252.369642,47.8881818 L255.435706,52.0309091 C251.347621,56.0890909 245.811674,58.2872727 239.083369,58.2872727 Z M251.858632,34.2763636 C251.773463,28.1890909 247.685379,20.6645455 238.316853,20.6645455 C229.544506,20.6645455 225.200916,28.02 224.860242,34.2763636 L251.858632,34.2763636 Z"></path>
        <path d="M63.7499789,57.2727273 L44.2464105,57.2727273 L42.2023684,50.6781818 L21.7619474,50.6781818 L19.7179053,57.2727273 L0.214336842,57.2727273 L21.1657684,0.880909091 L42.7985474,0.880909091 L63.7499789,57.2727273 Z M42.1404959,30 L24.8842975,23.5714286 L24.8842975,36.4285714 L42.1404959,30 Z"></path>
        <path d="M109.695747,57.2727273 L94.3654317,57.2727273 L94.3654317,52.9609091 C90.8735264,56.85 86.9557791,58.2872727 82.7825264,58.2872727 C72.8178212,58.2872727 64.6416527,50.8472727 64.6416527,36.8127273 C64.6416527,23.2854545 72.6474843,15.4227273 82.7825264,15.4227273 C86.9557791,15.4227273 91.1290317,16.86 94.3654317,20.7490909 L94.3654317,0.880909091 L109.695747,0.880909091 L109.695747,57.2727273 Z M87.9778001,44.8445455 C90.0218422,44.8445455 92.9175685,43.83 94.3654317,42.0545455 L94.3654317,31.5709091 C92.9175685,29.7954545 90.0218422,28.8654545 87.9778001,28.8654545 C83.8045475,28.8654545 80.3126422,31.74 80.3126422,36.8127273 C80.3126422,41.8854545 83.8045475,44.8445455 87.9778001,44.8445455 Z"></path>
    </g>
</svg>