<?xml version="1.0" encoding="UTF-8"?>
<svg width="664px" height="664px" viewBox="0 0 664 664" version="1.1" xmlns="http://www.w3.org/2000/svg" xmlns:xlink="http://www.w3.org/1999/xlink">
    <defs>
        <circle id="path-1" cx="40" cy="40" r="40"></circle>
        <linearGradient x1="246.595493%" y1="189.416354%" x2="-22.0532555%" y2="0%" id="linearGradient-3">
            <stop stop-color="#7465F6" offset="0%"></stop>
            <stop stop-color="#EBAEF5" offset="100%"></stop>
        </linearGradient>
        <linearGradient x1="-10.2662775%" y1="243.035753%" x2="130.072621%" y2="-132.300038%" id="linearGradient-4">
            <stop stop-color="#7465F6" offset="0%"></stop>
            <stop stop-color="#EBAEF5" offset="100%"></stop>
        </linearGradient>
        <linearGradient x1="267.205432%" y1="285.456384%" x2="0%" y2="0%" id="linearGradient-5">
            <stop stop-color="#7465F6" offset="0%"></stop>
            <stop stop-color="#EBAEF5" offset="100%"></stop>
        </linearGradient>
        <linearGradient x1="100%" y1="100%" x2="0%" y2="14.3279403%" id="linearGradient-6">
            <stop stop-color="#7465F6" offset="0%"></stop>
            <stop stop-color="#EBAEF5" offset="100%"></stop>
        </linearGradient>
        <linearGradient x1="156.133078%" y1="243.358383%" x2="-88.764881%" y2="-11.2781949%" id="linearGradient-7">
            <stop stop-color="#7465F6" offset="0%"></stop>
            <stop stop-color="#D4A0F6" offset="80.3149606%"></stop>
            <stop stop-color="#EBAEF5" offset="100%"></stop>
        </linearGradient>
        <circle id="path-8" cx="40" cy="40" r="40"></circle>
        <linearGradient x1="100%" y1="100%" x2="0%" y2="14.3279403%" id="linearGradient-10">
            <stop stop-color="#20C0D7" offset="0%"></stop>
            <stop stop-color="#6CE6B1" offset="100%"></stop>
        </linearGradient>
        <linearGradient x1="63.3116801%" y1="-20.8243686%" x2="30.6072336%" y2="76.8282033%" id="linearGradient-11">
            <stop stop-color="#20C0D7" offset="0%"></stop>
            <stop stop-color="#6CE6B1" offset="100%"></stop>
        </linearGradient>
        <linearGradient x1="150%" y1="22.7272727%" x2="-60.7142857%" y2="211.363636%" id="linearGradient-12">
            <stop stop-color="#20C0D7" offset="0%"></stop>
            <stop stop-color="#6CE6B1" offset="100%"></stop>
        </linearGradient>
        <linearGradient x1="189.142857%" y1="172.069536%" x2="0%" y2="14.3279403%" id="linearGradient-13">
            <stop stop-color="#20C0D7" offset="0%"></stop>
            <stop stop-color="#6CE6B1" offset="100%"></stop>
        </linearGradient>
        <linearGradient x1="225.497278%" y1="195.783578%" x2="-109.162129%" y2="-22.7648676%" id="linearGradient-14">
            <stop stop-color="#20C0D7" offset="0%"></stop>
            <stop stop-color="#6CE6B1" offset="100%"></stop>
        </linearGradient>
        <linearGradient x1="112.5%" y1="0%" x2="36.4583333%" y2="111.764706%" id="linearGradient-15">
            <stop stop-color="#20C0D7" offset="0%"></stop>
            <stop stop-color="#6CE6B1" offset="100%"></stop>
        </linearGradient>
        <circle id="path-16" cx="40" cy="40" r="40"></circle>
        <linearGradient x1="73.7004011%" y1="14.3279408%" x2="21.4077483%" y2="121.93601%" id="linearGradient-18">
            <stop stop-color="#34B3F8" offset="0%"></stop>
            <stop stop-color="#1A75ED" offset="100%"></stop>
        </linearGradient>
        <circle id="path-19" cx="40" cy="40" r="40"></circle>
        <linearGradient x1="50%" y1="0%" x2="50%" y2="97.9611767%" id="linearGradient-21">
            <stop stop-color="#FFAB82" offset="0%"></stop>
            <stop stop-color="#ED5E7C" offset="100%"></stop>
        </linearGradient>
    </defs>
    <g id="Homepage" stroke="none" stroke-width="1" fill="none" fill-rule="evenodd">
        <g id="sprite">
            <g id="icon" transform="translate(30.000000, 87.000000)">
                <mask id="mask-2" fill="white">
                    <use xlink:href="#path-1"></use>
                </mask>
                <use id="Oval-4" fill="#FFFFFF" xlink:href="#path-1"></use>
                <g id="Group-6" mask="url(#mask-2)">
                    <g transform="translate(7.000000, 12.000000)">
                        <path d="M18.78125,24.9375 L21.84375,27.5625 C23.2786174,29.0256126 24.3723674,30.265196 25.125,31.28125 C25.8776326,32.297304 26.2422159,33.0264707 26.21875,33.46875 C24.4731814,34.8654466 23.0148481,35.5946133 21.84375,35.65625 C20.6726519,35.7178867 17.9747353,35.2074701 13.75,34.125 L18.78125,24.9375 Z" id="Rectangle-11" fill="url(#linearGradient-3)"></path>
                        <path d="M45.03125,24.9375 L48.09375,27.5625 C49.5286174,29.0256126 50.6223674,30.265196 51.375,31.28125 C52.1276326,32.297304 52.4922159,33.0264707 52.46875,33.46875 C50.7231814,34.8654466 49.2648481,35.5946133 48.09375,35.65625 C46.9226519,35.7178867 44.2247353,35.2074701 40,34.125 L45.03125,24.9375 Z" id="Rectangle-11-Copy" fill="url(#linearGradient-4)" transform="translate(46.234907, 30.299365) scale(-1, 1) translate(-46.234907, -30.299365) "></path>
                        <path d="M25.34375,16.84375 C30.1762416,16.84375 41.7491455,9.33388876 41.7491455,5.46789551 C41.7491455,1.60190226 34.7699916,1.3125 29.9375,1.3125 C27.4589071,1.3125 23.12692,4.40886714 20.75,8.3125 C18.37308,12.2161329 18.125,16.4918811 18.125,18.375 C18.125,22.2409932 20.5112584,16.84375 25.34375,16.84375 Z" id="Oval-5" fill="url(#linearGradient-5)"></path>
                        <g id="bloffer" stroke-width="1" fill="none">
                            <circle id="Oval-8" fill="url(#linearGradient-6)" opacity="0.200000003" cx="33.5" cy="47.5" r="33.5"></circle>
                            <path d="M7.5,51.125 C11.2072832,45.6082382 13.6656166,42.7332382 14.875,42.5 C15.3077506,42.416541 19.0250655,39.6517716 23,39.5 C23.5122491,39.4804412 23.8890789,39.4746305 25.125,39.5 C25.2119234,39.5017843 25.1500105,38.0137001 25.1561409,36.2488056 C25.1575845,35.8332171 26.325905,33.2140346 25.75,31.75 C25.466594,31.0295405 22.7836963,28.6042771 21.0004883,25.625 C19.2172803,22.6457229 18.2244869,18.9237813 18.375,18.5 C18.6339299,17.7709628 22.4657939,18.3899878 25.75,17 C29.0342061,15.6100122 37.8524326,11.3636126 38.125,11.375 C38.92611,11.4084689 41.9533417,10.5843548 47.25,19.375 C48.0235062,20.6587564 48.7250872,24.1688426 47.625,23 C46.7249315,22.0436773 45.853739,25.1508743 44.75,26.75 C43.646261,28.3491257 41.5720349,30.3062565 40.625,31.375 C38.9030111,33.318291 40.3598695,35.1086233 40.25,36.625 C39.9875181,40.2476744 43.7089321,38.1624565 44.25,39.25 C45.0281532,40.8140838 48.4928594,40.8017983 50.375,41.75 C51.6297604,42.3821345 53.462931,44.340305 55.8745117,47.6245117 L60,53.625 L60,70 L6,70 L7.5,51.125 Z" id="Rectangle-12" fill="#FFFFFF"></path>
                            <path d="M6.4875,70 L59.775,70 C60.3,70 60.65,69.65 60.65,69.125 L60.65,60.55 C60.65,48.65 51.9,38.5 41.575,38.5 L41.1375,38.5 L41.1375,36.05 C42.45,36.3125 43.675,36.4 44.8125,36.4 C49.7125,36.4 53.0375,34.3875 53.2125,34.3 C53.475,34.125 53.65,33.8625 53.65,33.6 C53.65,33.3375 53.475,32.9875 53.3,32.9 C48.75,29.8375 48.575,21.35 48.575,21.2625 C48.575,21.2625 48.575,21.2625 48.575,21.175 C48.75,20.5625 48.8375,19.95 48.925,19.3375 C48.925,19.3375 48.925,19.3375 48.925,19.25 C48.925,19.25 48.925,19.1625 48.925,19.1625 C49.0125,18.4625 49.1,17.7625 49.1,16.975 C49.1,7.6125 42.0125,7.10542736e-15 33.2625,7.10542736e-15 C24.3375,8.8817842e-16 17.25,7.6125 17.25,16.975 C17.25,18.4625 17.425,19.8625 17.775,21.175 C17.775,21.525 17.5125,29.8375 13.05,32.8125 C12.7875,32.9875 12.7,33.25 12.7,33.5125 C12.7,33.775 12.875,34.125 13.1375,34.2125 C13.3125,34.3 16.6375,36.3125 21.5375,36.3125 C22.675,36.3125 23.9,36.225 25.125,35.9625 L25.125,38.5 L24.6875,38.5 C14.3625,38.5 5.6125,48.5625 5.6125,60.55 L5.6125,69.125 C5.6125,69.65 5.9625,70 6.4875,70 Z M42.1,40.25 L37.9,51.275 L35.8875,51.275 L35.8875,50.4 L36.675,50.4 C37.2,50.4 37.55,50.05 37.55,49.525 L37.55,46.6375 C37.55,46.1125 37.2,45.7625 36.675,45.7625 L30.2,45.7625 C29.675,45.7625 29.325,46.1125 29.325,46.6375 L29.325,49.525 C29.325,50.05 29.675,50.4 30.2,50.4 L30.9875,50.4 L30.9875,51.275 L28.975,51.275 L24.775,40.25 L25.9125,40.25 L26.35,40.5125 C28.45,41.825 30.8125,42.4375 33.175,42.4375 C35.5375,42.4375 37.9,41.7375 40.0875,40.425 L40.4375,40.1625 L41.6625,40.1625 C41.75,40.25 41.925,40.25 42.1,40.25 Z M40.7875,53.025 L40.7875,63 L26,63 L26,53.025 L40.7875,53.025 Z M35.8,48.65 L31.075,48.65 L31.075,47.5125 L35.8,47.5125 L35.8,48.65 Z M34.1375,50.4 L34.1375,51.275 L32.7375,51.275 L32.7375,50.4 L34.1375,50.4 Z M19.175,19.425 C21.3625,19.075 30.55,17.5 37.4625,12.1625 C38.075,13.125 41.6625,18.55 46.9125,19.775 C45.6875,26.8625 40,32.2 33.0875,32.2 C26.0875,32.2875 20.3125,26.6875 19.175,19.425 Z M33.0875,34.0375 C35.275,34.0375 37.375,33.5125 39.3,32.6375 L39.3,38.85 L39.0375,39.025 C35.3625,41.3 30.8125,41.3 27.1375,39.025 L26.875,38.85 L26.875,32.6375 C28.8,33.5125 30.9,34.0375 33.0875,34.0375 Z M51.1125,33.425 C49.3625,34.2125 45.6,35.35 41.1375,34.3 L41.1375,31.675 C43.675,30.1 45.775,27.7375 47.175,24.9375 C47.6125,27.5625 48.6625,31.15 51.1125,33.425 Z M47.175,16.975 C47.175,17.325 47.175,17.675 47.0875,18.025 C42.275,16.7125 38.95,11.2 38.8625,11.1125 C38.8625,11.1125 38.775,11.025 38.775,11.025 C40.35,9.625 41.75,7.9625 42.8875,6.125 C45.6,8.925 47.175,12.775 47.175,16.975 Z M33.0875,1.75 C36.325,1.75 39.3,2.975 41.6625,4.9 C36.2375,14.4375 21.8875,17.2375 19,17.675 C19,17.4125 19,17.2375 19,16.975 C19,8.575 25.3,1.75 33.0875,1.75 Z M15.15,33.425 C17.5125,31.15 18.65,27.65 19.0875,25.025 C20.4875,27.825 22.5875,30.1 25.0375,31.675 L25.0375,34.3 C20.575,35.2625 16.9,34.2125 15.15,33.425 Z M7.3625,60.55 C7.3625,50.4875 14.45,41.475 22.9375,40.425 L27.1375,51.3625 L25.125,51.3625 C24.6,51.3625 24.25,51.7125 24.25,52.2375 L24.25,63.875 C24.25,64.4 24.6,64.75 25.125,64.75 L41.6625,64.75 C42.1875,64.75 42.5375,64.4 42.5375,63.875 L42.5375,52.15 C42.5375,51.625 42.1875,51.275 41.6625,51.275 L39.7375,51.275 L43.85,40.425 C52.075,41.825 58.8125,50.575 58.8125,60.4625 L58.8125,68.25 L48.925,68.25 L48.925,64.6625 C48.925,64.1375 48.575,63.7875 48.05,63.7875 C47.525,63.7875 47.175,64.1375 47.175,64.6625 L47.175,68.25 L19,68.25 L19,64.6625 C19,64.1375 18.65,63.7875 18.125,63.7875 C17.6,63.7875 17.25,64.1375 17.25,64.6625 L17.25,68.25 L7.3625,68.25 L7.3625,60.55 Z" id="Shape" fill="url(#linearGradient-6)" fill-rule="nonzero"></path>
                            <path d="M33.4375,62.125 C35.5375,62.125 37.2875,60.375 37.2875,58.275 C37.2875,56.175 35.5375,54.425 33.4375,54.425 C31.3375,54.425 29.5875,56.175 29.5875,58.275 C29.5875,60.375 31.25,62.125 33.4375,62.125 Z M33.4375,56.0875 C34.575,56.0875 35.5375,57.05 35.5375,58.1875 C35.5375,59.325 34.575,60.375 33.4375,60.375 C32.3,60.375 31.3375,59.4125 31.3375,58.275 C31.3375,57.1375 32.2125,56.0875 33.4375,56.0875 Z" id="Shape" fill="url(#linearGradient-6)" fill-rule="nonzero"></path>
                        </g>
                        <path d="M45.25,18.375 C46.6997475,18.375 48.09375,18.3849958 48.09375,15.96875 C48.09375,13.5525042 44.9497475,5.90625 43.5,5.90625 C42.0502525,5.90625 38.90625,8.74000422 38.90625,11.15625 C38.90625,13.5724958 43.8002525,18.375 45.25,18.375 Z" id="Oval-6" fill="url(#linearGradient-7)"></path>
                    </g>
                </g>
                <circle id="Oval-7" fill="#FFFFFF" mask="url(#mask-2)" cx="55" cy="78" r="3"></circle>
                <circle id="Oval-7-Copy" fill="#FFFFFF" mask="url(#mask-2)" cx="25" cy="78" r="3"></circle>
            </g>
            <path d="M143.036571,309.5824 C143.042971,309.7136 143.044571,309.8448 143.044571,309.9728 C143.044571,313.9728 140.002971,318.5824 134.438171,318.5824 C132.729371,318.5824 131.138971,318.0832 129.801371,317.2224 C130.036571,317.2512 130.278171,317.2624 130.522971,317.2624 C131.940571,317.2624 133.244571,316.7808 134.279771,315.968 C132.956571,315.9424 131.839771,315.0688 131.454171,313.8688 C131.638171,313.9024 131.826971,313.9216 132.022171,313.9216 C132.297371,313.9216 132.566171,313.8848 132.818971,313.816 C131.434971,313.5376 130.391771,312.3152 130.391771,310.8496 L130.391771,310.8128 C130.799771,311.0384 131.266971,311.176 131.762971,311.192 C130.950171,310.648 130.417371,309.7232 130.417371,308.672 C130.417371,308.1184 130.566171,307.5968 130.826971,307.1504 C132.319771,308.9808 134.546971,310.184 137.062171,310.3136 C137.009371,310.0912 136.983771,309.8608 136.983771,309.6224 C136.983771,307.9536 138.337371,306.5968 140.009371,306.5968 C140.878171,306.5968 141.665371,306.9648 142.217371,307.5536 C142.906971,307.416 143.553371,307.1664 144.137371,306.8192 C143.911771,307.5248 143.433371,308.1184 142.807771,308.4944 C143.420571,308.4192 144.002971,308.2576 144.545371,308.016 C144.140571,308.6224 143.626971,309.1568 143.036571,309.5824 Z" id="Combined-Shape" fill="#FFFFFF"></path>
            <path d="M48.9984,307.6144 L46.6896,307.6144 C46.416,307.6144 46.112,307.9744 46.112,308.4528 L46.112,310.12 L49,310.12 L48.5632,312.4976 L46.112,312.4976 L46.112,319.6352 L43.3872,319.6352 L43.3872,312.4976 L40.9152,312.4976 L40.9152,310.12 L43.3872,310.12 L43.3872,308.7216 C43.3872,306.7152 44.7792,305.0848 46.6896,305.0848 L48.9984,305.0848 L48.9984,307.6144 Z" id="Path" fill="#FFFFFF"></path>
            <path d="M87.3142857,318.7264 L84.2038857,318.7264 L84.2038857,308.7168 L87.3142857,308.7168 L87.3142857,318.7264 Z M85.7398857,307.488 C84.7574857,307.488 84.1222857,306.792 84.1222857,305.9312 C84.1222857,305.0528 84.7766857,304.3776 85.7798857,304.3776 C86.7830857,304.3776 87.3974857,305.0528 87.4166857,305.9312 C87.4166857,306.792 86.7830857,307.488 85.7398857,307.488 Z M98.6742857,318.7264 L95.5638857,318.7264 L95.5638857,313.1792 C95.5638857,311.888 95.1126857,311.0112 93.9878857,311.0112 C93.1286857,311.0112 92.6182857,311.6048 92.3926857,312.176 C92.3094857,312.3792 92.2886857,312.6672 92.2886857,312.9536 L92.2886857,318.7248 L89.1766857,318.7248 L89.1766857,311.9088 C89.1766857,310.6592 89.1366857,309.6144 89.0950857,308.7152 L91.7974857,308.7152 L91.9398857,310.1056 L92.0022857,310.1056 C92.4118857,309.4528 93.4150857,308.4896 95.0934857,308.4896 C97.1398857,308.4896 98.6742857,309.8608 98.6742857,312.808 L98.6742857,318.7264 Z" id="Shape" fill="#FFFFFF" fill-rule="nonzero"></path>
            <path d="M143.036571,349.5824 C143.042971,349.7136 143.044571,349.8448 143.044571,349.9728 C143.044571,353.9728 140.002971,358.5824 134.438171,358.5824 C132.729371,358.5824 131.138971,358.0832 129.801371,357.2224 C130.036571,357.2512 130.278171,357.2624 130.522971,357.2624 C131.940571,357.2624 133.244571,356.7808 134.279771,355.968 C132.956571,355.9424 131.839771,355.0688 131.454171,353.8688 C131.638171,353.9024 131.826971,353.9216 132.022171,353.9216 C132.297371,353.9216 132.566171,353.8848 132.818971,353.816 C131.434971,353.5376 130.391771,352.3152 130.391771,350.8496 L130.391771,350.8128 C130.799771,351.0384 131.266971,351.176 131.762971,351.192 C130.950171,350.648 130.417371,349.7232 130.417371,348.672 C130.417371,348.1184 130.566171,347.5968 130.826971,347.1504 C132.319771,348.9808 134.546971,350.184 137.062171,350.3136 C137.009371,350.0912 136.983771,349.8608 136.983771,349.6224 C136.983771,347.9536 138.337371,346.5968 140.009371,346.5968 C140.878171,346.5968 141.665371,346.9648 142.217371,347.5536 C142.906971,347.416 143.553371,347.1664 144.137371,346.8192 C143.911771,347.5248 143.433371,348.1184 142.807771,348.4944 C143.420571,348.4192 144.002971,348.2576 144.545371,348.016 C144.140571,348.6224 143.626971,349.1568 143.036571,349.5824 Z" id="Combined-Shape-Copy" fill="#103169"></path>
            <path d="M48.9984,347.6144 L46.6896,347.6144 C46.416,347.6144 46.112,347.9744 46.112,348.4528 L46.112,350.12 L49,350.12 L48.5632,352.4976 L46.112,352.4976 L46.112,359.6352 L43.3872,359.6352 L43.3872,352.4976 L40.9152,352.4976 L40.9152,350.12 L43.3872,350.12 L43.3872,348.7216 C43.3872,346.7152 44.7792,345.0848 46.6896,345.0848 L48.9984,345.0848 L48.9984,347.6144 Z" id="Path-Copy" fill="#103169"></path>
            <path d="M87.3142857,358.7264 L84.2038857,358.7264 L84.2038857,348.7168 L87.3142857,348.7168 L87.3142857,358.7264 Z M85.7398857,347.488 C84.7574857,347.488 84.1222857,346.792 84.1222857,345.9312 C84.1222857,345.0528 84.7766857,344.3776 85.7798857,344.3776 C86.7830857,344.3776 87.3974857,345.0528 87.4166857,345.9312 C87.4166857,346.792 86.7830857,347.488 85.7398857,347.488 Z M98.6742857,358.7264 L95.5638857,358.7264 L95.5638857,353.1792 C95.5638857,351.888 95.1126857,351.0112 93.9878857,351.0112 C93.1286857,351.0112 92.6182857,351.6048 92.3926857,352.176 C92.3094857,352.3792 92.2886857,352.6672 92.2886857,352.9536 L92.2886857,358.7248 L89.1766857,358.7248 L89.1766857,351.9088 C89.1766857,350.6592 89.1366857,349.6144 89.0950857,348.7152 L91.7974857,348.7152 L91.9398857,350.1056 L92.0022857,350.1056 C92.4118857,349.4528 93.4150857,348.4896 95.0934857,348.4896 C97.1398857,348.4896 98.6742857,349.8608 98.6742857,352.808 L98.6742857,358.7264 Z" id="Shape-Copy" fill="#103169" fill-rule="nonzero"></path>
            <path d="M624,95 C621.794,95 620,93.206 620,91 C620,88.794 621.794,87 624,87 C626.206,87 628,88.794 628,91 C628,93.206 626.206,95 624,95 Z M624,96 C628.71,96 632,98.467 632,102 L632,103 L616,103 L616,102 C616,98.467 619.29,96 624,96 Z" id="Combined-Shape" fill="#5F6B81" fill-rule="nonzero"></path>
            <path d="M624,28.823 L615.035,23.259 C615.322,23.1 615.648,23 616,23 L632,23 C632.352,23 632.678,23.1 632.965,23.259 L624,28.823 Z M624.527,30.85 L633.997,24.973 C633.997,24.982 634,24.991 634,25 L634,34 C634,35.103 633.103,36 632,36 L616,36 C614.897,36 614,35.103 614,34 L614,25 C614,24.991 614.003,24.982 614.003,24.974 L623.473,30.85 C623.634,30.95 623.817,31 624,31 C624.183,31 624.366,30.95 624.527,30.85 Z" id="Combined-Shape" fill="#5F6B81" fill-rule="nonzero"></path>
            <path d="M229,243 C222.372583,243 217,237.627417 217,231 C217,224.372583 222.372583,219 229,219 C235.627417,219 241,224.372583 241,231 C241,237.627417 235.627417,243 229,243 Z M227.909091,236.983943 L236.316844,228.57619 L234.719244,226.978591 L227.909091,233.788745 L224.371665,230.251318 L222.774065,231.848918 L227.909091,236.983943 Z" id="Combined-Shape" fill="url(#linearGradient-6)"></path>
            <path d="M64.8892873,232.125786 L52.1719539,232.125786 C51.8599539,232.125786 51.571065,231.964117 51.4101762,231.701077 L48.1275095,226.3223 C47.9346206,226.0077 47.9639539,225.60746 48.1995095,225.323447 C48.4341762,225.038559 48.827065,224.927576 49.1799539,225.048172 L65.1799539,230.427823 C65.5897317,230.567645 65.8377317,230.977498 65.7657317,231.397838 C65.6937317,231.818178 65.323065,232.125786 64.8892873,232.125786 Z M52.1719539,233.873561 L64.8892873,233.873561 C65.3239539,233.873561 65.6946206,234.181169 65.7657317,234.603257 C65.8377317,235.023597 65.5897317,235.434324 65.1799539,235.573272 L49.1799539,240.952049 C48.8261762,241.071771 48.4341762,240.962535 48.1986206,240.677648 C47.9639539,240.392761 47.9337317,239.991646 48.1266206,239.677921 L51.4101762,234.297396 C51.5701762,234.036104 51.859065,233.873561 52.1719539,233.873561 Z" id="Combined-Shape" fill="#FFFFFF" fill-rule="nonzero"></path>
            <g id="icon-copy" transform="translate(130.000000, 87.000000)">
                <mask id="mask-9" fill="white">
                    <use xlink:href="#path-8"></use>
                </mask>
                <use id="Oval-4" fill="#FFFFFF" xlink:href="#path-8"></use>
                <g id="Group-6" mask="url(#mask-9)">
                    <g transform="translate(7.000000, 13.000000)">
                        <circle id="Oval-8" fill="url(#linearGradient-10)" opacity="0.200000003" cx="33.5" cy="46.5" r="33.5"></circle>
                        <g id="Group-7" stroke-width="1" fill="none" transform="translate(6.000000, 0.000000)">
                            <path d="M11,40.5 C13.9601498,38.8034563 11.5623372,40.0698357 14.375,39 C17.1876628,37.9301643 33.7751075,35.6394009 42.8754883,40 C47.9972552,42.45418 54.9132354,50.506596 53.75,61.5 C52.9745097,68.828936 49.6828431,75.9122693 43.875,82.75 L0.625,63.75 C-0.625336203,52.9307351 2.83299713,45.1807351 11,40.5 Z" id="Rectangle-14" stroke="url(#linearGradient-11)" stroke-width="1.7" fill="#FFFFFF"></path>
                            <path d="M20,30 L34,30 L34,38 C31.6666667,40 29.3333333,41 27,41 C24.6666667,41 22.3333333,40 20,38 L20,30 Z" id="Rectangle-13" stroke="url(#linearGradient-12)" stroke-width="1.7" fill="#FFFFFF"></path>
                            <circle id="Oval-9" stroke="url(#linearGradient-10)" stroke-width="1.7" fill="#FFFFFF" cx="27" cy="16" r="16"></circle>
                        </g>
                    </g>
                </g>
                <circle id="Oval-7" fill="#FFFFFF" mask="url(#mask-9)" cx="55" cy="78" r="3"></circle>
                <circle id="Oval-7-Copy" fill="#FFFFFF" mask="url(#mask-9)" cx="25" cy="78" r="3"></circle>
                <path d="M33.5,27 C39.2989899,27 47.25,22.8659932 47.25,19 C47.25,18.0705418 46.6622726,14.7236494 46,14 C45.3377274,13.2763506 43.6014217,13.1245117 37.9995117,13.1245117 C34.9571551,13.1245117 30.049844,16.9769644 28.375,17.875 C26.700156,18.7730356 25.375,20.3538176 25.375,22.625 C25.375,26.4909932 27.7010101,27 33.5,27 Z" id="Oval-10" fill="url(#linearGradient-13)" mask="url(#mask-9)"></path>
                <path d="M49.75,24.375 C51.4068542,24.375 54.125,23.4795695 54.125,22.375 C54.125,21.2704305 50.1568542,15.125 48.5,15.125 C47.8357797,15.125 45.083203,14.9527585 44.875,15.75 C44.666797,16.5472415 47,19.338244 47,20 C47,21.1045695 48.0931458,24.375 49.75,24.375 Z" id="Oval-11" fill="url(#linearGradient-14)" mask="url(#mask-9)"></path>
                <path d="M40,55.1715729 L42.8284271,58 L40,60.8284271 L37.1715729,58 L40,55.1715729 Z M40,61 L42,86 L38,86 L40,61 Z M41,55 L49,52 L52,57 L43,58 L41,55 Z M39,55 L37,58 L28,57 L31,52 L39,55 Z" id="Combined-Shape" stroke="url(#linearGradient-15)" stroke-width="1.7" fill="#FFFFFF" mask="url(#mask-9)"></path>
            </g>
            <g id="icon-copy-3" transform="translate(230.000000, 87.000000)">
                <mask id="mask-17" fill="white">
                    <use xlink:href="#path-16"></use>
                </mask>
                <use id="Oval-4" fill="#FFFFFF" xlink:href="#path-16"></use>
                <g id="Group-6" mask="url(#mask-17)" fill="url(#linearGradient-18)" opacity="0.200000003">
                    <g transform="translate(7.000000, 26.000000)" id="Oval-8">
                        <circle cx="33.5" cy="33.5" r="33.5"></circle>
                    </g>
                </g>
                <g id="Group-10" mask="url(#mask-17)" stroke="url(#linearGradient-18)" stroke-width="1.7" fill="#FFFFFF">
                    <g transform="translate(10.000000, 9.000000)">
                        <ellipse id="Oval-12" cx="31.5" cy="30" rx="10.8088235" ry="30"></ellipse>
                        <ellipse id="Oval-12-Copy" transform="translate(31.500000, 30.000000) rotate(-300.000000) translate(-31.500000, -30.000000) " cx="31.5" cy="30" rx="10.8088235" ry="30"></ellipse>
                        <ellipse id="Oval-12-Copy-2" transform="translate(31.500000, 30.000000) rotate(-240.000000) translate(-31.500000, -30.000000) " cx="31.5" cy="30" rx="10.8088235" ry="30"></ellipse>
                    </g>
                </g>
                <text id="AH" stroke="url(#linearGradient-18)" stroke-width="1.7" fill="#FFFFFF" mask="url(#mask-17)" font-family="Lato-Black, Lato" font-size="34" font-weight="700">
                    <tspan x="15" y="52">AH</tspan>
                </text>
            </g>
            <g id="icon-copy-2" transform="translate(330.000000, 87.000000)">
                <mask id="mask-20" fill="white">
                    <use xlink:href="#path-19"></use>
                </mask>
                <use id="Oval-4" fill="#FFFFFF" xlink:href="#path-19"></use>
                <circle id="Oval-8" fill="url(#linearGradient-21)" opacity="0.200000003" mask="url(#mask-20)" cx="40.5" cy="59.5" r="33.5"></circle>
                <path d="M35.6875,13.625 C37.2029376,14.2569919 38.2029376,14.7569919 38.6875,15.125 C39.4143437,15.6770121 39.2889807,16.9153998 40.0625,16.9375 C41.6048917,16.9815676 42.9181054,15.9565868 44.0021412,13.8625574 L50.375,14.625 C52.6211926,15.7807494 53.9961926,16.6765828 54.5,17.3125 C54.7467663,17.6239741 57.7954016,21.1924654 59,23.875 C60.2045984,26.5575346 62.7958267,36.6801497 62.25,42.4375 C62.0094843,44.9744467 61.5311502,47.2633691 61.25,49.3125 C61.0625665,50.6785872 59.7917332,54.6160872 57.4375,61.125 C52.5848278,64.5960772 48.6264945,66.2210772 45.5625,66 C40.9665083,65.6683842 41.9350098,63.0749316 41.4377441,63.0625 C39.4994548,63.0140428 39.9027842,64.5670976 39.0625,64.9375 C38.5023105,65.1844349 37.8148105,65.6636016 37,66.375 C35.051303,66.6539247 33.718051,66.7164247 33.0002441,66.5625 C31.9235338,66.3316129 28.510371,64.4562322 27.375,63.875 C25.0361591,62.6776737 24.250683,60.2950594 23.4375,59.625 C20.7202242,57.3859761 23.9134498,56.3831393 23,55.5 C20.1753919,52.7691194 19.196388,50.935786 20.0629883,50 C19.1399802,42.0483338 18.9315655,37.5275004 19.4377441,36.4375 C20.1970121,34.8024993 20.2262236,30.0014328 20.625,29.0625 C21.6634455,26.6174441 22.8402242,22.9666358 24.3125,20 C25.4731901,17.6612094 27.9313633,16.31622 29.875,15.25 C31.1707578,14.5391867 33.1082578,13.99752 35.6875,13.625 Z" id="Rectangle" fill="#FFFFFF" mask="url(#mask-20)"></path>
                <path d="M62.7202385,40.7955486 C63.1108083,40.079504 63.3060932,39.3634594 63.3060932,38.5172249 C63.3060932,37.4106106 62.9155234,36.3690912 62.1994788,35.5228567 C62.5249537,34.8719071 62.7202385,34.1558625 62.7202385,33.3747229 C62.7202385,32.5284884 62.4598587,31.6822539 62.0692889,30.9662094 C62.1343839,30.6407346 62.1994788,30.3152598 62.1994788,29.92469 C62.1994788,28.4926008 61.5485292,27.1907016 60.4419149,26.3444671 C60.5070098,26.0189923 60.5721048,25.6935175 60.5721048,25.4331376 C60.5721048,24.0661435 59.9211552,22.7642442 58.8796358,21.9180097 C58.8145408,20.0302558 57.5777366,18.3377868 55.8201726,17.7519322 C55.169223,15.7990833 53.2814691,14.4971841 51.1984304,14.692469 C50.3521959,13.5858547 49.1153916,13 47.6833024,13 C47.2276377,13 46.706878,13.065095 46.2512133,13.2603798 C45.7955486,13.1301899 45.3398838,13 44.8191241,13 C43.0615602,13 41.4341861,14.692469 40.7832365,16.319843 C40.7181416,16.319843 40.7181416,16.384938 40.6530466,16.384938 C40.5879516,16.384938 40.5879516,16.319843 40.5228567,16.319843 C39.8068121,14.692469 38.244533,13 36.4869691,13 C36.0313043,13 35.5105446,13.065095 35.0548799,13.2603798 C34.5992152,13.1301899 34.1435504,13 33.6227908,13 C32.2557966,13 30.9538973,13.6509496 30.1076628,14.692469 C28.0246241,14.4971841 26.1368702,15.7990833 25.4859206,17.7519322 C23.7283566,18.3377868 22.4915523,20.0302558 22.4264574,21.9180097 C21.384938,22.7642442 20.7339884,24.0661435 20.7339884,25.4331376 C20.7339884,25.7586125 20.7990833,26.0840873 20.8641783,26.3444671 C19.757564,27.1907016 19.1066143,28.4926008 19.1066143,29.92469 C19.1066143,30.2501648 19.1717093,30.6407346 19.2368043,30.9662094 C18.7811395,31.6822539 18.5858547,32.5284884 18.5858547,33.3747229 C18.5858547,34.1558625 18.7811395,34.8719071 19.1066143,35.5228567 C18.3905698,36.3690912 18,37.4106106 18,38.5172249 C18,39.2983644 18.1952849,40.079504 18.5858547,40.7955486 C18.1952849,41.5115931 18,42.2276377 18,43.0738722 C18,43.9201067 18.2603798,44.7663412 18.6509496,45.4823858 C18.5858547,45.8078606 18.5207597,46.1333354 18.5207597,46.5239052 C18.5207597,47.4352346 18.7811395,48.3465641 19.3018992,49.0626087 C19.1717093,49.5182734 19.0415194,49.9739381 19.0415194,50.4946978 C19.0415194,51.926787 19.692469,53.2286862 20.7990833,54.0749207 C20.9292733,54.7258703 21.1245582,55.3768199 21.5151279,55.8975796 C21.384938,56.3532443 21.2547481,56.8089091 21.2547481,57.3296688 C21.2547481,59.0221378 22.1660775,60.5193219 23.6632616,61.3004614 C24.1840213,63.2533103 25.8764903,64.6203045 27.8293392,64.6203045 C28.4802888,65.466539 29.4567132,66.0523936 30.4982326,66.2476785 C31.3444671,67.028818 32.3859865,67.4844828 33.5576958,67.4844828 C34.4039303,67.4844828 35.1850698,67.2241029 35.9011144,66.7684382 C36.2265892,66.8335331 36.552064,66.8986281 36.8775388,66.8986281 C38.244533,66.8986281 39.5464322,65.5967289 40.3926667,64.5552095 C40.5228567,64.5552095 40.5879516,64.5552095 40.7181416,64.5552095 C41.5643761,65.6618238 42.8011803,66.8986281 44.2332695,66.8986281 C44.5587443,66.8986281 44.8842191,66.8335331 45.2096939,66.7684382 C45.9257385,67.2241029 46.706878,67.4844828 47.5531125,67.4844828 C48.7248218,67.4844828 49.7663412,67.028818 50.6125757,66.2476785 C51.6540951,66.0523936 52.6305195,65.466539 53.2814691,64.6203045 C55.2994129,64.5552095 56.9918819,63.1882153 57.4475467,61.3004614 C58.9447308,60.5193219 59.8560602,59.0221378 59.8560602,57.3296688 C59.8560602,56.874004 59.7909653,56.3532443 59.5956804,55.8975796 C59.9862502,55.3768199 60.24663,54.7258703 60.311725,54.0749207 C61.4183393,53.2286862 62.0692889,51.926787 62.0692889,50.4946978 C62.0692889,50.0390331 62.004194,49.5182734 61.8089091,49.0626087 C62.3296688,48.2814691 62.5900486,47.4352346 62.5900486,46.5239052 C62.5900486,46.1984304 62.5249537,45.8078606 62.4598587,45.4823858 C62.9155234,44.7663412 63.1108083,43.9201067 63.1108083,43.0738722 C63.3060932,42.2276377 63.1108083,41.4464982 62.7202385,40.7955486 Z M61.0928645,41.2512133 C61.4834343,41.771973 61.6787192,42.3578276 61.6787192,43.0087772 C61.6787192,43.6597269 61.4834343,44.2455815 61.0928645,44.7663412 L60.8324847,45.156911 L60.9626746,45.5474807 C61.0928645,45.8729555 61.0928645,46.1333354 61.0928645,46.4588102 C61.0928645,47.1748548 60.8324847,47.8258044 60.3768199,48.3465641 L60.0513451,48.7371339 L60.24663,49.1927986 C60.4419149,49.5833684 60.5070098,49.9739381 60.5070098,50.4296029 C60.5070098,51.4060273 59.9862502,52.3173567 59.2051106,52.8381164 L58.8796358,53.0334013 L58.8796358,53.4239711 C58.8145408,54.0749207 58.619256,54.6607753 58.1635912,55.1164401 L57.8381164,55.5070098 L58.0334013,55.9626746 C58.2286862,56.3532443 58.2937812,56.7438141 58.2937812,57.1994788 C58.2937812,58.3711882 57.5777366,59.4127075 56.5362172,59.8683723 L56.0805525,60.0636571 L56.0154575,60.5193219 C55.8201726,61.951411 54.6484633,62.9278355 53.2163742,62.9278355 C53.1512792,62.9278355 53.0861842,62.9278355 53.0210893,62.9278355 L52.5003296,62.8627405 L52.2399497,63.2533103 C51.784285,63.9693548 51.0031455,64.4901145 50.156911,64.5552095 L49.8314362,64.6203045 L49.6361513,64.8155893 C49.1153916,65.401444 48.334252,65.7269188 47.5531125,65.7269188 C46.9021629,65.7269188 46.3163082,65.5316339 45.8606435,65.1410641 L45.6002637,64.9457793 L45.2096939,65.0759692 C43.9728896,65.466539 42.2804206,64.1646397 41.5643761,63.1231203 L41.5643761,61.8863161 L41.5643761,60.258942 C41.5643761,60.258942 41.629471,60.1938471 41.629471,60.1938471 L46.1210234,55.7022947 L50.9380505,55.7022947 C51.0682404,55.9626746 51.1984304,56.2230544 51.4588102,56.4834343 C51.84938,56.874004 52.4352346,57.1343839 53.0210893,57.1343839 C53.6069439,57.1343839 54.1927986,56.874004 54.5833684,56.4834343 C54.9739381,56.0928645 55.234318,55.5070098 55.234318,54.9211552 C55.234318,54.3353005 54.9739381,53.7494459 54.5833684,53.3588761 C54.1927986,52.9683063 53.6069439,52.7079265 53.0210893,52.7079265 C52.0446649,52.7079265 51.2635253,53.2937812 50.9380505,54.1400157 L45.9257385,54.1400157 C45.6653586,54.0749207 45.4049788,54.1400157 45.2747889,54.3353005 L41.4992811,58.1108083 L41.4992811,52.8381164 C41.5643761,52.7730215 41.629471,52.7730215 41.694566,52.7079265 L46.706878,47.6956145 L55.104128,47.6956145 C55.234318,47.9559943 55.3645079,48.2163742 55.6248877,48.476754 C56.0154575,48.8673238 56.6013122,49.1277036 57.1871668,49.1277036 C57.7730215,49.1277036 58.3588761,48.8673238 58.7494459,48.476754 C59.1400157,48.0861842 59.4003955,47.5003296 59.4003955,46.9144749 C59.4003955,46.3286203 59.1400157,45.7427656 58.7494459,45.3521959 C58.3588761,44.9616261 57.7730215,44.7012462 57.1871668,44.7012462 C56.2107424,44.7012462 55.4296029,45.2871009 55.104128,46.1333354 L48.2691571,46.1333354 L52.6956145,41.706878 C52.8908994,41.5115931 52.9559943,41.3163082 52.8908994,41.1210234 C52.8908994,41.0559284 52.8908994,41.0559284 52.8908994,40.9908334 L52.8908994,36.9549458 L56.2107424,33.6351028 C56.4711222,33.7652927 56.796597,33.8303877 57.1220718,33.8303877 C57.7079265,33.8303877 58.2937812,33.5700078 58.6843509,33.1794381 C59.0749207,32.7888683 59.3353005,32.2030136 59.3353005,31.617159 C59.3353005,31.0313043 59.0749207,30.4454497 58.6843509,30.0548799 C58.2937812,29.6643101 57.7079265,29.4039303 57.1220718,29.4039303 C56.5362172,29.4039303 55.9503625,29.6643101 55.5597928,30.0548799 C54.9088432,30.7058295 54.7135583,31.7473489 55.104128,32.5284884 L52.8908994,34.7417171 L52.8908994,27.4510814 C52.8908994,27.4510814 52.8908994,27.4510814 52.8908994,27.4510814 C53.1512792,27.3208915 53.411659,27.1907016 53.6069439,26.9954167 C53.9975137,26.6048469 54.2578935,26.0189923 54.2578935,25.4331376 C54.2578935,24.847283 53.9975137,24.2614283 53.6069439,23.8708586 C53.2163742,23.4802888 52.6305195,23.219909 52.0446649,23.219909 C51.4588102,23.219909 50.8729555,23.4802888 50.4823858,23.8708586 C50.091816,24.2614283 49.8314362,24.847283 49.8314362,25.4331376 C49.8314362,26.3444671 50.4172908,27.1256066 51.1984304,27.4510814 C51.1984304,27.4510814 51.1984304,27.4510814 51.1984304,27.5161764 L51.1984304,34.7417171 L49.1153916,32.4633935 C49.5059614,31.617159 49.3757714,30.6407346 48.6597269,29.9897849 C48.2691571,29.5992152 47.6833024,29.3388353 47.0974478,29.3388353 C46.5115931,29.3388353 45.9257385,29.5992152 45.5351687,29.9897849 C45.1445989,30.3803547 44.8842191,30.9662094 44.8842191,31.552064 C44.8842191,32.1379187 45.1445989,32.7237733 45.5351687,33.1143431 C45.9257385,33.5049129 46.5115931,33.7652927 47.0974478,33.7652927 C47.4229226,33.7652927 47.6833024,33.7001978 48.0087772,33.5700078 L51.3286203,36.8898509 L51.3286203,40.8606435 L46.9672579,45.2220059 L46.9672579,41.706878 C47.2276377,41.5766881 47.4880176,41.4464982 47.7483974,41.1861183 C48.1389672,40.7955486 48.399347,40.2096939 48.399347,39.6238392 C48.399347,39.0379846 48.1389672,38.4521299 47.7483974,38.0615602 C47.3578276,37.6709904 46.771973,37.4106106 46.1861183,37.4106106 C45.6002637,37.4106106 45.014409,37.6709904 44.6238392,38.0615602 C44.2332695,38.4521299 43.9728896,39.0379846 43.9728896,39.6238392 C43.9728896,40.6002637 44.5587443,41.3814032 45.4049788,41.706878 L45.4049788,46.784285 L41.5643761,50.6248877 L41.5643761,45.4172908 L41.5643761,27.0605117 L44.8842191,23.7406686 C45.1445989,23.8708586 45.4700737,23.9359535 45.7955486,23.9359535 C46.3814032,23.9359535 46.9672579,23.6755737 47.3578276,23.2850039 C47.7483974,22.8944341 48.0087772,22.3085795 48.0087772,21.7227248 C48.0087772,21.1368702 47.7483974,20.5510155 47.3578276,20.1604458 C46.9672579,19.769876 46.3814032,19.5094961 45.7955486,19.5094961 C45.2096939,19.5094961 44.6238392,19.769876 44.2332695,20.1604458 C43.5823199,20.8113954 43.387035,21.8529148 43.7776047,22.6340543 L40.7181416,25.6935175 L37.6586784,22.6340543 C38.0492481,21.7878198 37.9190582,20.8113954 37.2030136,20.1604458 C36.8124439,19.769876 36.2265892,19.5094961 35.6407346,19.5094961 C35.0548799,19.5094961 34.4690253,19.769876 34.0784555,20.1604458 C33.6878857,20.5510155 33.4275059,21.1368702 33.4275059,21.7227248 C33.4275059,22.3085795 33.6878857,22.8944341 34.0784555,23.2850039 C34.4690253,23.6755737 35.0548799,23.9359535 35.6407346,23.9359535 C35.9662094,23.9359535 36.2265892,23.8708586 36.552064,23.7406686 L39.8719071,27.0605117 L39.8719071,43.7248218 L34.2086454,38.0615602 L34.2086454,33.309628 C34.4690253,33.1794381 34.7294051,33.0492481 34.9897849,32.7888683 C35.3803547,32.3982985 35.6407346,31.8124439 35.6407346,31.2265892 C35.6407346,30.6407346 35.3803547,30.0548799 34.9897849,29.6643101 C34.5992152,29.2737404 34.0133605,29.0133605 33.4275059,29.0133605 C32.8416512,29.0133605 32.2557966,29.2737404 31.8652268,29.6643101 C31.474657,30.0548799 31.2142772,30.6407346 31.2142772,31.2265892 C31.2142772,32.2030136 31.8001318,32.9841532 32.6463663,33.309628 L32.6463663,36.4992811 L28.0246241,31.9426338 L28.0246241,27.3859865 C28.2850039,27.2557966 28.5453838,27.1256066 28.8057636,26.8652268 C29.1963334,26.474657 29.4567132,25.8888024 29.4567132,25.3029477 C29.4567132,24.7170931 29.1963334,24.1312384 28.8057636,23.7406686 C28.4151938,23.3500989 27.8293392,23.089719 27.2434845,23.089719 C26.6576299,23.089719 26.0717752,23.3500989 25.6812055,23.7406686 C25.2906357,24.1312384 25.0302558,24.7170931 25.0302558,25.3029477 C25.0302558,26.2793721 25.6161105,27.0605117 26.462345,27.3859865 L26.462345,32.4633935 C26.462345,32.7888683 26.6576299,33.0492481 26.9180097,33.1794381 L31.4095621,37.6709904 L28.3500989,37.6709904 C28.0246241,36.8247559 27.2434845,36.2389012 26.2670601,36.2389012 C25.6812055,36.2389012 25.0953508,36.4992811 24.704781,36.8898509 C24.3142113,37.2804206 24.0538314,37.8662753 24.0538314,38.4521299 C24.0538314,39.0379846 24.3142113,39.6238392 24.704781,40.014409 C25.0953508,40.4049788 25.6812055,40.6653586 26.2670601,40.6653586 C26.8529148,40.6653586 27.4387694,40.4049788 27.8293392,40.014409 C28.0246241,39.8191241 28.219909,39.5587443 28.3500989,39.2332695 L33.0369361,39.2332695 L39.8719071,46.0682404 L39.8719071,58.0457133 L36.3567791,54.5305854 L36.3567791,49.7135583 C36.617159,49.5833684 36.8775388,49.4531784 37.1379187,49.1927986 C37.5284884,48.8022288 37.7888683,48.2163742 37.7888683,47.6305195 C37.7888683,47.0446649 37.5284884,46.4588102 37.1379187,46.0682404 C36.7473489,45.6776707 36.1614943,45.4172908 35.5756396,45.4172908 C34.9897849,45.4172908 34.4039303,45.6776707 34.0133605,46.0682404 C33.6227908,46.4588102 33.3624109,47.0446649 33.3624109,47.6305195 C33.3624109,48.6069439 33.9482656,49.3880835 34.7945001,49.7135583 L34.7945001,52.9032114 L29.1963334,47.3701397 C29.3265233,47.1097598 29.3916183,46.784285 29.3916183,46.4588102 C29.3916183,45.2220059 28.4151938,44.2455815 27.1783896,44.2455815 C25.9415853,44.2455815 24.9651609,45.2220059 24.9651609,46.4588102 C24.9651609,47.6956145 25.9415853,48.6720389 27.1783896,48.6720389 C27.5038644,48.6720389 27.8293392,48.6069439 28.089719,48.476754 L33.6878857,54.0098257 L30.4982326,54.0098257 C30.1727578,53.1635912 29.3916183,52.5777366 28.4151938,52.5777366 C27.8293392,52.5777366 27.2434845,52.8381164 26.8529148,53.2286862 C26.462345,53.619256 26.2019651,54.2051106 26.2019651,54.7909653 C26.2019651,55.3768199 26.462345,55.9626746 26.8529148,56.3532443 C27.2434845,56.7438141 27.8293392,57.004194 28.4151938,57.004194 C29.0010485,57.004194 29.5869031,56.7438141 29.9774729,56.3532443 C30.1727578,56.1579595 30.3680427,55.8975796 30.4982326,55.5721048 L35.3152598,55.5721048 L39.937002,60.1938471 L39.937002,61.7561261 L39.937002,62.9929304 C39.2860524,64.0995448 37.4633935,65.401444 36.1614943,64.9457793 L35.7058295,64.9457793 L35.3803547,65.2061591 C34.859595,65.5967289 34.2737404,65.7920138 33.6878857,65.7920138 C32.9067462,65.7920138 32.1907016,65.466539 31.6048469,64.8806843 L31.4095621,64.6853994 L31.0840873,64.6203045 C30.2378528,64.5552095 29.4567132,64.0344498 29.0010485,63.3184052 L28.7406686,62.9278355 L28.2850039,62.9278355 C28.219909,62.9278355 28.154814,62.9278355 28.089719,62.9278355 C26.7227248,62.9278355 25.5510155,61.8863161 25.2906357,60.5193219 L25.2255407,60.0636571 L24.769876,59.8683723 C23.6632616,59.4127075 23.012312,58.3711882 23.012312,57.1994788 C23.012312,56.8089091 23.077407,56.3532443 23.2726919,55.9626746 L23.4679768,55.5070098 L23.142502,55.181535 C22.7519322,54.7258703 22.4915523,54.1400157 22.4264574,53.489066 L22.4264574,53.0984963 L22.1009826,52.9032114 C21.2547481,52.3824517 20.7990833,51.4711222 20.7990833,50.4946978 C20.7990833,50.104128 20.8641783,49.6484633 21.0594632,49.2578935 L21.2547481,48.8022288 L20.9292733,48.411659 C20.4736085,47.8908994 20.2132287,47.2399497 20.2132287,46.5239052 C20.2132287,46.1984304 20.2783237,45.9380505 20.3434186,45.6125757 L20.4736085,45.2220059 L20.2132287,44.7663412 C19.8226589,44.2455815 19.627374,43.6597269 19.627374,43.0087772 C19.627374,42.3578276 19.8226589,41.771973 20.2132287,41.2512133 L20.6037985,40.7304536 L20.2132287,40.2096939 C19.8226589,39.6889342 19.627374,39.1030796 19.627374,38.4521299 C19.627374,37.6058954 20.0179438,36.7596609 20.6688934,36.2389012 L21.2547481,35.7181416 L20.7990833,35.0671919 C20.4085136,34.5464322 20.2132287,33.9605776 20.2132287,33.309628 C20.2132287,32.6586784 20.4085136,32.0728237 20.7990833,31.552064 L21.0594632,31.2265892 L20.9292733,30.8360194 C20.7990833,30.5105446 20.7990833,30.2501648 20.7990833,29.92469 C20.7990833,28.8831706 21.384938,27.9067462 22.2962675,27.3859865 L22.8821221,27.0605117 L22.6217423,26.4095621 C22.4915523,26.0840873 22.4264574,25.7586125 22.4264574,25.3680427 C22.4264574,24.3916183 22.9472171,23.4802888 23.7283566,22.9595291 L24.1189264,22.6991493 L24.0538314,22.2434845 C24.0538314,22.1783896 24.0538314,22.1132946 24.0538314,22.0481996 C24.0538314,20.6812055 24.9651609,19.5094961 26.2670601,19.2491163 L26.7878198,19.1189264 L26.9180097,18.5981667 C27.2434845,17.1009826 28.7406686,16.0594632 30.3029477,16.384938 L30.8888024,16.5151279 L31.2142772,15.9943682 C31.7350369,15.1481337 32.6463663,14.627374 33.6227908,14.627374 C34.0133605,14.627374 34.3388353,14.692469 34.7294051,14.8226589 L35.0548799,14.9528488 L35.3803547,14.8226589 C35.7058295,14.692469 36.0963993,14.627374 36.4869691,14.627374 C37.6586784,14.627374 38.7652927,16.0594632 39.1558625,17.2311725 L39.2860524,17.6217423 L39.6766222,17.7519322 C39.8719071,17.8170271 40.0671919,17.9472171 40.2624768,18.012312 L40.7181416,18.2726919 L41.1738063,18.012312 C41.3690912,17.8821221 41.5643761,17.8170271 41.7596609,17.7519322 L42.1502307,17.6217423 L42.2804206,17.2311725 C42.6709904,16.0594632 43.7776047,14.627374 44.9493141,14.627374 C45.3398838,14.627374 45.6653586,14.692469 46.0559284,14.8226589 L46.3814032,14.9528488 L46.706878,14.8226589 C47.0323528,14.692469 47.4229226,14.627374 47.8134924,14.627374 C48.7899168,14.627374 49.7012462,15.1481337 50.2220059,15.9943682 L50.5474807,16.5151279 L51.1333354,16.384938 C52.7607094,15.9943682 54.1927986,17.1009826 54.5182734,18.5981667 L54.6484633,19.1189264 L55.169223,19.2491163 C56.4711222,19.5094961 57.3824517,20.6812055 57.3824517,22.0481996 C57.3824517,22.1132946 57.3824517,22.1783896 57.3824517,22.2434845 L57.3173567,22.6991493 L57.7079265,22.9595291 C58.554161,23.4802888 59.0098257,24.3916183 59.0098257,25.3680427 C59.0098257,25.6935175 58.9447308,26.0189923 58.8145408,26.4095621 L58.554161,27.0605117 L59.1400157,27.3859865 C60.0513451,27.9067462 60.6371998,28.8831706 60.6371998,29.92469 C60.6371998,30.2501648 60.5721048,30.5105446 60.5070098,30.8360194 L60.3768199,31.2265892 L60.6371998,31.552064 C61.0277695,32.0728237 61.2230544,32.6586784 61.2230544,33.309628 C61.2230544,33.9605776 61.0277695,34.5464322 60.6371998,35.0671919 L60.181535,35.7181416 L60.7673897,36.2389012 C61.4183393,36.7596609 61.8089091,37.6058954 61.8089091,38.4521299 C61.8089091,39.1030796 61.6136242,39.6889342 61.2230544,40.2096939 L60.8324847,40.7304536 L61.0928645,41.2512133 Z" id="Shape" fill="url(#linearGradient-21)" fill-rule="nonzero" mask="url(#mask-20)"></path>
            </g>
            <path d="M279,243 C272.372583,243 267,237.627417 267,231 C267,224.372583 272.372583,219 279,219 C285.627417,219 291,224.372583 291,231 C291,237.627417 285.627417,243 279,243 Z M277.909091,236.983943 L286.316844,228.57619 L284.719244,226.978591 L277.909091,233.788745 L274.371665,230.251318 L272.774065,231.848918 L277.909091,236.983943 Z" id="Combined-Shape" fill="url(#linearGradient-10)"></path>
            <path d="M365.118521,253.113569 L353.417259,253.113569 L352.190926,249.124276 L339.927595,249.124276 L338.701262,253.113569 L327,253.113569 L339.569915,219 L352.548607,219 L365.118521,253.113569 Z M352.153806,236.615253 L341.800864,232.726364 L341.800864,240.504141 L352.153806,236.615253 Z" id="Combined-Shape" fill="url(#linearGradient-18)"></path>
            <path d="M392.683911,253.113569 L383.486413,253.113569 L383.486413,250.505185 C381.391427,252.857845 379.040955,253.727306 376.537192,253.727306 C370.558818,253.727306 365.653485,249.226566 365.653485,240.736532 C365.653485,232.553367 370.456624,227.796902 376.537192,227.796902 C379.040955,227.796902 381.544719,228.666364 383.486413,231.019024 L383.486413,219 L392.683911,219 L392.683911,253.113569 Z M379.654122,245.595286 C380.880455,245.595286 382.61776,244.981549 383.486413,243.907508 L383.486413,237.565556 C382.61776,236.491515 380.880455,235.928923 379.654122,235.928923 C377.150359,235.928923 375.055373,237.667845 375.055373,240.736532 C375.055373,243.805219 377.150359,245.595286 379.654122,245.595286 Z" id="Combined-Shape" fill="url(#linearGradient-18)"></path>
            <path d="M351.069926,304.541001 L343.681169,304.541001 L342.906801,302.021963 L335.163125,302.021963 L334.388758,304.541001 L327,304.541001 L334.937268,283 L343.132658,283 L351.069926,304.541001 Z M342.883361,294.123145 L336.346,291.667507 L336.346,296.578782 L342.883361,294.123145 Z" id="Combined-Shape" fill="url(#linearGradient-18)"></path>
            <path d="M368.068353,304.541001 L362.260596,304.541001 L362.260596,302.893938 C360.937718,304.379524 359.453513,304.928545 357.872512,304.928545 C354.09747,304.928545 351,302.086554 351,296.725525 C351,291.558269 354.03294,288.554801 357.872512,288.554801 C359.453513,288.554801 361.034513,289.103822 362.260596,290.589408 L362.260596,283 L368.068353,283 L368.068353,304.541001 Z M359.840697,299.793584 C360.615064,299.793584 361.712085,299.406039 362.260596,298.727837 L362.260596,294.723213 C361.712085,294.045011 360.615064,293.689762 359.840697,293.689762 C358.259696,293.689762 356.936818,294.787804 356.936818,296.725525 C356.936818,298.663246 358.259696,299.793584 359.840697,299.793584 Z" id="Combined-Shape" fill="url(#linearGradient-18)"></path>
            <path d="M444.444717,259 C433.399022,259 424.444717,250.045695 424.444717,239 C424.444717,227.954305 433.399022,219 444.444717,219 C455.490412,219 464.444717,227.954305 464.444717,239 C464.444717,250.045695 455.490412,259 444.444717,259 Z M436.444717,233 C435.892433,233 435.444717,233.447715 435.444717,234 C435.444717,234.552285 435.892433,235 436.444717,235 L452.444717,235 C452.997002,235 453.444717,234.552285 453.444717,234 C453.444717,233.447715 452.997002,233 452.444717,233 L436.444717,233 Z M436.444717,238 C435.892433,238 435.444717,238.447715 435.444717,239 C435.444717,239.552285 435.892433,240 436.444717,240 L452.444717,240 C452.997002,240 453.444717,239.552285 453.444717,239 C453.444717,238.447715 452.997002,238 452.444717,238 L436.444717,238 Z M436.444717,243 C435.892433,243 435.444717,243.447715 435.444717,244 C435.444717,244.552285 435.892433,245 436.444717,245 L452.444717,245 C452.997002,245 453.444717,244.552285 453.444717,244 C453.444717,243.447715 452.997002,243 452.444717,243 L436.444717,243 Z" id="Combined-Shape" fill="#103169"></path>
            <path d="M504,259 C492.954305,259 484,250.045695 484,239 C484,227.954305 492.954305,219 504,219 C515.045695,219 524,227.954305 524,239 C524,250.045695 515.045695,259 504,259 Z M496,233 C495.447715,233 495,233.447715 495,234 C495,234.552285 495.447715,235 496,235 L512,235 C512.552285,235 513,234.552285 513,234 C513,233.447715 512.552285,233 512,233 L496,233 Z M496,238 C495.447715,238 495,238.447715 495,239 C495,239.552285 495.447715,240 496,240 L512,240 C512.552285,240 513,239.552285 513,239 C513,238.447715 512.552285,238 512,238 L496,238 Z M496,243 C495.447715,243 495,243.447715 495,244 C495,244.552285 495.447715,245 496,245 L512,245 C512.552285,245 513,244.552285 513,244 C513,243.447715 512.552285,243 512,243 L496,243 Z" id="Combined-Shape" fill="#FFFFFF"></path>
            <path d="M504,317.585786 L499.050253,312.636039 C498.659728,312.245515 498.026563,312.245515 497.636039,312.636039 C497.245515,313.026563 497.245515,313.659728 497.636039,314.050253 L502.585786,319 L497.636039,323.949747 C497.245515,324.340272 497.245515,324.973437 497.636039,325.363961 C498.026563,325.754485 498.659728,325.754485 499.050253,325.363961 L504,320.414214 L508.949747,325.363961 C509.340272,325.754485 509.973437,325.754485 510.363961,325.363961 C510.754485,324.973437 510.754485,324.340272 510.363961,323.949747 L505.414214,319 L510.363961,314.050253 C510.754485,313.659728 510.754485,313.026563 510.363961,312.636039 C509.973437,312.245515 509.340272,312.245515 508.949747,312.636039 L504,317.585786 Z M504,339 C492.954305,339 484,330.045695 484,319 C484,307.954305 492.954305,299 504,299 C515.045695,299 524,307.954305 524,319 C524,330.045695 515.045695,339 504,339 Z" id="Combined-Shape" fill="#FFFFFF"></path>
        </g>
    </g>
</svg>